<?xml version="1.0" standalone="no"?>
<!DOCTYPE svg PUBLIC "-//W3C//DTD SVG 20010904//EN"
 "http://www.w3.org/TR/2001/REC-SVG-20010904/DTD/svg10.dtd">
<svg version="1.0" xmlns="http://www.w3.org/2000/svg"
 width="512.000000pt" height="512.000000pt" viewBox="0 0 512.000000 512.000000"
 preserveAspectRatio="xMidYMid meet">

<g transform="translate(0.000000,512.000000) scale(0.100000,-0.100000)"
fill="#000000" stroke="none">
<path d="M1285 3630 c-675 -78 -1106 -725 -919 -1378 50 -174 135 -320 261
-447 204 -205 475 -316 773 -317 138 -1 215 10 337 48 256 80 460 251 606 507
l43 76 113 -75 c162 -106 144 -110 347 88 l165 162 162 -162 c213 -213 190
-211 362 -20 71 79 136 152 146 162 20 22 -2 39 251 -195 99 -92 122 -109 150
-109 24 0 117 49 351 182 354 201 336 186 358 312 29 168 -66 342 -229 419
l-67 32 -1040 3 -1040 2 -35 78 c-53 117 -139 238 -237 332 -123 119 -248 196
-398 248 -137 46 -325 68 -460 52z m-110 -799 c102 -45 175 -156 175 -266 0
-92 -24 -151 -89 -216 -70 -69 -133 -94 -225 -87 -108 9 -194 68 -248 171 -31
59 -32 182 -1 248 37 81 117 147 208 170 43 11 131 1 180 -20z"/>
<path d="M1000 2682 c-100 -50 -106 -192 -9 -244 96 -51 199 12 199 124 0 54
-33 102 -87 124 -43 18 -61 18 -103 -4z"/>
</g>
</svg>
